<svg xmlns="http://www.w3.org/2000/svg" viewBox="0 0 124.73 124.73"><defs><style>.cls-1{fill:#5e9fcf;}.cls-2{fill:#fff;}.cls-3{fill:#f7966a;}.cls-4{fill:none;stroke:#fff;stroke-linecap:round;stroke-linejoin:round;stroke-width:0;}.cls-5{fill:#956db0;}.cls-6{fill:#e6628e;}</style></defs><g id="Layer_2" data-name="Layer 2"><g id="Layer_1-2" data-name="Layer 1"><path class="cls-1" d="M64.24,42.11a11.25,11.25,0,1,0,0-19.49l-1.12.66a3,3,0,0,1-4.51-2.6V9.07a6,6,0,0,0-4.13-5.7C44.15,0,23.3-4.26,9.52,9.52S0,44.14,3.37,54.48a6,6,0,0,0,5.7,4.13H14a18.81,18.81,0,0,1-.36-2.8c0-.31,0-.63,0-1a18.75,18.75,0,0,1,37.49,0,18.08,18.08,0,0,1-.38,3.75h7.88V44.05a3,3,0,0,1,4.51-2.59Z"/><path class="cls-2" d="M14,58.61a18.81,18.81,0,0,1-.36-2.8,18.81,18.81,0,0,0,.36,2.8Z"/><path class="cls-3" d="M115.21,9.52h0C101.43-4.26,80.58,0,70.24,3.37a6,6,0,0,0-4.13,5.7V14a18.74,18.74,0,1,1,3.75,37.11,18.14,18.14,0,0,1-3.75-.38v7.88H80.67a3,3,0,0,1,2.6,4.51l-.54.92a11.86,11.86,0,0,0-1.57,4.75,11.25,11.25,0,1,0,22.4,0A11.76,11.76,0,0,0,102,64.05l-.54-.93a3,3,0,0,1,2.6-4.51h11.6a6,6,0,0,0,5.71-4.13C124.71,44.15,129,23.3,115.21,9.52Z"/><line class="cls-4" x1="120.51" y1="4.22" x2="120.51" y2="4.22"/><path class="cls-5" d="M42,60.71a11.82,11.82,0,0,0,1.62-5.23c0-.2,0-.41,0-.62a11.25,11.25,0,1,0-22.44,1.08,11.51,11.51,0,0,0,1.57,4.74l.54.93a3,3,0,0,1-2.6,4.5H9.07a6,6,0,0,0-5.7,4.13c-3.35,10.34-7.63,31.19,6.15,45s34.62,9.5,45,6.15a6,6,0,0,0,4.13-5.71v-4.92a18.75,18.75,0,1,1,0-36.74V66.11H44.05a3,3,0,0,1-2.59-4.5Z"/><path class="cls-6" d="M115.65,66.11h-4.92a18.75,18.75,0,1,1-36.74,0H66.11V80.67a3,3,0,0,1-4.5,2.6l-.93-.54a11.81,11.81,0,0,0-4.75-1.57,11.25,11.25,0,1,0,0,22.4A11.81,11.81,0,0,0,60.68,102l.93-.54a3,3,0,0,1,4.5,2.6v11.6a6,6,0,0,0,4.13,5.71c10.34,3.35,31.19,7.62,45-6.15s9.5-34.63,6.15-45A6,6,0,0,0,115.65,66.11Z"/></g></g></svg>